PathFileType	3	(X/Y/Z)	D:\VICON_DB\Goncalves\Pilot01\09-03-2026\bw_sq_120_01.trc
DataRate	CameraRate	NumFrames	NumMarkers	Units	OrigDataRate	OrigDataStartFrame	OrigNumFrames
200.0	200.0	5	34	mm	200.0	1	730	
Frame#	Time	LASI			RASI			LPSI			RPSI			LTHI			LTHAP			LTHAD			LKNE			LKNM			LTIB			LTIAP			LTIAD			LANK			LMED			LHEE			LTOE			LFMH			LSMH			LVMH			RTHI			RTHAP			RTHAD			RKNE			RKNM			RTIB			RTIAP			RTIAD			RANK			RMED			RHEE			RTOE			RFMH			RSMH			RVMH			
		X1	Y1	Z1	X2	Y2	Z2	X3	Y3	Z3	X4	Y4	Z4	X5	Y5	Z5	X6	Y6	Z6	X7	Y7	Z7	X8	Y8	Z8	X9	Y9	Z9	X10	Y10	Z10	X11	Y11	Z11	X12	Y12	Z12	X13	Y13	Z13	X14	Y14	Z14	X15	Y15	Z15	X16	Y16	Z16	X17	Y17	Z17	X18	Y18	Z18	X19	Y19	Z19	X20	Y20	Z20	X21	Y21	Z21	X22	Y22	Z22	X23	Y23	Z23	X24	Y24	Z24	X25	Y25	Z25	X26	Y26	Z26	X27	Y27	Z27	X28	Y28	Z28	X29	Y29	Z29	X30	Y30	Z30	X31	Y31	Z31	X32	Y32	Z32	X33	Y33	Z33	X34	Y34	Z34	
1	0	131.0184	886.82385	-1083.3174	127.51817	889.0415	-1344.0927				327.38034	937.25793	-1245.3945	140.79338	697.44257	-1022.5152	161.21053	767.29175	-1023.9043	184.60132	636.10431	-990.55212	219.58675	476.84879	-992.52289				265.74149	288.66696	-951.69745	193.60837	354.1478	-1004.7795	221.36699	256.6424	-966.93439	289.49677	73.441345	-947.3457				324.69135	62.178005	-1004.0809	206.33017	71.607201	-955.35858	147.96407	45.387306	-975.63965				168.79721	25.274706	-897.63446	176.63824	631.45026	-1424.8639	138.14462	752.67957	-1387.1875	117.79929	662.08313	-1382.2722	220.21785	492.93326	-1417.5227				243.63625	302.31366	-1456.0532	193.24043	346.03723	-1404.8752	199.56059	265.6181	-1416.3163	280.54572	64.106964	-1452.4022				310.29459	57.901112	-1406.5637	186.28349	69.199875	-1450.0814	132.9091	49.471321	-1432.5958				156.05054	17.879932	-1503.3407
2	0.005	131.01889	886.82483	-1083.3051	127.51831	889.03949	-1344.0807				325.87823	938.06885	-1245.8403	140.79089	697.44556	-1022.5042	161.15436	767.31946	-1023.8596	184.59401	636.10583	-990.54205	219.58028	476.84985	-992.51471				265.73822	288.66766	-951.68774	193.61273	354.1564	-1004.767	221.36301	256.64212	-966.92969	289.49573	73.44191	-947.34027				324.69095	62.179977	-1004.0793	206.33337	71.605858	-955.36212	147.96429	45.389088	-975.6394				168.79942	25.240114	-897.65778	176.64204	631.44995	-1424.8519	138.14671	752.67853	-1387.1721	117.80218	662.08313	-1382.2601	220.2229	492.9277	-1417.5134				243.63956	302.31253	-1456.0461	193.24934	346.04037	-1404.8586	199.55904	265.61688	-1416.3129	280.54245	64.11087	-1452.4004				310.29712	57.906506	-1406.5607	186.28317	69.191566	-1450.0735	132.90364	49.469856	-1432.5994				156.037	17.894869	-1503.35
3	0.01	131.01923	886.82654	-1083.2905	127.51878	889.03735	-1344.0665				324.40683	938.86707	-1246.2725	140.78778	697.44922	-1022.4911	161.09216	767.34955	-1023.8101	184.58533	636.10797	-990.53021	219.57318	476.85141	-992.50525				265.73492	288.66891	-951.67633	193.61626	354.16489	-1004.7536	221.35847	256.642	-966.92438	289.49472	73.442719	-947.33417				324.69	62.182888	-1004.0781	206.33632	71.604721	-955.36572	147.96434	45.391411	-975.63922				168.80165	25.206392	-897.67999	176.64726	631.44946	-1424.8376	138.14989	752.67719	-1387.1543	117.80669	662.08264	-1382.2454	220.2296	492.92181	-1417.502				243.64383	302.31122	-1456.0377	193.26094	346.04263	-1404.8391	199.55794	265.61575	-1416.3086	280.53876	64.115372	-1452.3984				310.29834	57.912102	-1406.5563	186.283	69.182518	-1450.0653	132.89771	49.468163	-1432.6029				156.0242	17.908659	-1503.359
4	0.015	131.01926	886.8288	-1083.2743	127.51962	889.03516	-1344.0504				323.02344	939.62207	-1246.6738	140.78401	697.45331	-1022.4758	161.02556	767.38104	-1023.7568	184.57539	636.11072	-990.5166	219.56567	476.85349	-992.49432				265.73169	288.67081	-951.66345	193.61874	354.173	-1004.74	221.35353	256.64203	-966.9184	289.4938	73.443832	-947.32733				324.68854	62.186901	-1004.0771	206.33885	71.603928	-955.36908	147.96416	45.394299	-975.6391				168.80371	25.175486	-897.69971	176.65405	631.44879	-1424.8215	138.15433	752.67566	-1387.1343	117.8131	662.08179	-1382.2283	220.2381	492.91565	-1417.4883				243.64923	302.30969	-1456.0286	193.27521	346.04416	-1404.8173	199.55748	265.61487	-1416.3037	280.53473	64.12043	-1452.396				310.29828	57.917847	-1406.5507	186.2831	69.17292	-1450.0571	132.89148	49.466244	-1432.6064				156.01263	17.92067	-1503.3671
5	0.02	131.01888	886.83173	-1083.2562	127.52092	889.03284	-1344.0322				321.76785	940.31183	-1247.033	140.77957	697.45795	-1022.4584	160.95705	767.41235	-1023.702	184.56427	636.11407	-990.50128	219.55789	476.85614	-992.48206				265.7287	288.6734	-951.64905	193.62016	354.1806	-1004.7261	221.34819	256.64221	-966.9118	289.49295	73.445251	-947.32007				324.68634	62.192184	-1004.0765	206.34084	71.603569	-955.37213	147.96368	45.397686	-975.63892				168.80556	25.148932	-897.71582	176.66266	631.44806	-1424.8036	138.16025	752.67377	-1387.1125	117.82168	662.08026	-1382.2085	220.24852	492.9093	-1417.4728				243.65581	302.30804	-1456.0184	193.29202	346.0455	-1404.793	199.55794	265.61438	-1416.298	280.53024	64.125916	-1452.3936				310.29715	57.923698	-1406.5441	186.28348	69.162979	-1450.0496	132.88512	49.464104	-1432.6102				156.0025	17.930643	-1503.3743
